<?xml version="1.0" encoding="utf-8"?>
<!-- Generator: Adobe Illustrator 19.0.0, SVG Export Plug-In . SVG Version: 6.00 Build 0)  -->
<svg version="1.1" id="Layer_1" xmlns="http://www.w3.org/2000/svg" xmlns:xlink="http://www.w3.org/1999/xlink" x="0px" y="0px"
	 viewBox="0 0 600 600"  xml:space="preserve">
<style type="text/css">
	.st0{fill:url(#XMLID_19_);}
	.st1{fill:#FFFFFF;}
</style>
<g id="XMLID_1_">
	
		<linearGradient id="XMLID_19_" gradientUnits="userSpaceOnUse" x1="0.2244" y1="-0.2042" x2="1.1849" y2="-0.2042" gradientTransform="matrix(0 293.5529 -293.5624 0 190.0681 45.704)">
		<stop  offset="0" style="stop-color:#BF0000"/>
		<stop  offset="1" style="stop-color:#8F0000"/>
	</linearGradient>
	<path id="XMLID_3_" class="st0" d="M67.5,79.7v16.1c6.7,0,12.2,5.5,12.2,12.2c0,6.7-5.5,12.2-12.2,12.2v16.1
		c6.7,0,12.2,5.5,12.2,12.2c0,6.7-5.5,12.2-12.2,12.2v16.1c6.7,0,12.2,5.5,12.2,12.2c0,6.7-5.5,12.2-12.2,12.2v16.1
		c6.7,0,12.2,5.5,12.2,12.2c0,6.7-5.5,12.2-12.2,12.2v16.1c6.7,0,12.2,5.5,12.2,12.2c0,6.7-5.5,12.2-12.2,12.2v16.1
		c6.7,0,12.2,5.5,12.2,12.2c0,6.7-5.5,12.2-12.2,12.2v16.1c6.7,0,12.2,5.5,12.2,12.2c0,6.7-5.5,12.2-12.2,12.2v16.1
		c6.7,0,12.2,5.5,12.2,12.2c0,6.7-5.5,12.2-12.2,12.2v16.1c3.2,0,6.4,1.3,8.6,3.6c2.3,2.3,3.6,5.4,3.6,8.6h16.1
		c0-6.7,5.5-12.2,12.2-12.2s12.2,5.5,12.2,12.2h16.1c0-6.7,5.5-12.2,12.2-12.2c6.7,0,12.2,5.5,12.2,12.2h16.1
		c0-6.7,5.5-12.2,12.2-12.2c6.7,0,12.2,5.5,12.2,12.2h16.1c0-6.7,5.5-12.2,12.2-12.2c6.7,0,12.2,5.5,12.2,12.2h16.1
		c0-6.7,5.5-12.2,12.2-12.2c6.7,0,12.2,5.5,12.2,12.2h16.1c0-6.7,5.5-12.2,12.2-12.2s12.2,5.5,12.2,12.2h16.1
		c0-6.7,5.5-12.2,12.2-12.2c6.7,0,12.2,5.5,12.2,12.2h16.1c0-6.7,5.5-12.2,12.2-12.2c6.7,0,12.2,5.5,12.2,12.2h16.1
		c0-3.2,1.3-6.4,3.6-8.6c2.3-2.3,5.4-3.6,8.6-3.6v-16.1c-6.7,0-12.2-5.5-12.2-12.2c0-6.7,5.5-12.2,12.2-12.2v-16.1
		c-6.7,0-12.2-5.5-12.2-12.2c0-6.7,5.5-12.2,12.2-12.2v-16.1c-6.7,0-12.2-5.5-12.2-12.2c0-6.7,5.5-12.2,12.2-12.2v-16.1
		c-6.7,0-12.2-5.5-12.2-12.2c0-6.7,5.5-12.2,12.2-12.2V242c-6.7,0-12.2-5.5-12.2-12.2s5.5-12.2,12.2-12.2v-16.1
		c-6.7,0-12.2-5.5-12.2-12.2c0-6.7,5.5-12.2,12.2-12.2v-16.1c-6.7,0-12.2-5.5-12.2-12.2c0-6.7,5.5-12.2,12.2-12.2v-16.1
		c-6.7,0-12.2-5.5-12.2-12.2c0-6.7,5.5-12.2,12.2-12.2V79.7c-3.2,0-6.4-1.3-8.6-3.6c-2.3-2.3-3.6-5.4-3.6-8.6h-16.1
		c0,6.7-5.5,12.2-12.2,12.2c-6.7,0-12.2-5.5-12.2-12.2h-16.1c0,6.7-5.5,12.2-12.2,12.2c-6.7,0-12.2-5.5-12.2-12.2h-16.1
		c0,6.7-5.5,12.2-12.2,12.2c-6.7,0-12.2-5.5-12.2-12.2h-16.1c0,6.7-5.5,12.2-12.2,12.2c-6.7,0-12.2-5.5-12.2-12.2h-16.1
		c0,6.7-5.5,12.2-12.2,12.2c-6.7,0-12.2-5.5-12.2-12.2h-16.1c0,6.7-5.5,12.2-12.2,12.2c-6.7,0-12.2-5.5-12.2-12.2h-16.1
		c0,6.7-5.5,12.2-12.2,12.2c-6.7,0-12.2-5.5-12.2-12.2h-16.1c0,6.7-5.5,12.2-12.2,12.2c-6.7,0-12.2-5.5-12.2-12.2H79.7
		c0,3.2-1.3,6.4-3.6,8.6C73.9,78.4,70.7,79.7,67.5,79.7z"/>
	<path id="XMLID_4_" class="st1" d="M378.4,213.5H196.3l9.5-44.5h111l10.2-47.9H167.4l-50.2,237h48.2l22.1-103.5h115.6l-100.5,99.5
		l17.7,31.2c8.1-5.4,21.4-6.1,30.6-6.1c16.3,0,32.3,5.4,48.9,5.4c15.2,0,30.9-1,56.3-13.2l8.9-41.8c-17.3,7.1-42.9,13.9-65.2,13.9
		c-9.2,0-17.6-2-26.5-3.4l97.4-94.7L378.4,213.5z"/>
</g>
</svg>
